<svg xmlns="http://www.w3.org/2000/svg" viewBox="0 0 48 48">
  <path fill="#34A853" d="M24 4C13.504 4 5 12.504 5 23c0 12.115 15.348 21.556 17.808 23.118a1.5 1.5 0 0 0 1.808 0C27.348 44.556 43 35.115 43 23 43 12.504 34.496 4 24 4z"/>
  <path fill="#FBBC04" d="M24 4v43c.6-.4 1.2-.8 1.808-1.182C27.348 44.556 43 35.115 43 23 43 12.504 34.496 4 24 4z"/>
  <path fill="#4285F4" d="M5 23c0 5.603 3.763 10.342 9 11.803V11.197C9.763 12.658 5 17.397 5 23z"/>
  <circle cx="24" cy="23" r="6" fill="#fff"/>
</svg>
