<?xml version="1.0" encoding="UTF-8"?>
<svg id="Layer_1" data-name="Layer 1" xmlns="http://www.w3.org/2000/svg" viewBox="0 0 670.13 210.11">
  <defs>
    <style>
      .cls-1 {
        fill: #ff7b3f;
      }
    </style>
  </defs>
  <g>
    <path class="cls-1" d="M52.04,124.68c-3.9-4.17-6.12-9.18-6.12-15.03s1.95-11.13,6.12-15.31L129.41,11.97h-24.77L40.07,81.26l.28-.28-7.79,8.63c-2.78,2.78-4.73,5.57-5.84,8.91-1.39,3.34-2.23,6.68-2.23,10.3,0,3.34.56,6.96,1.67,10.3,1.11,3.34,2.78,6.68,5.29,9.46l8.07,9.74,65.12,69.57h25.6L52.04,124.68Z"/>
    <path class="cls-1" d="M0,11.69v195.92h19.48V11.69H0Z"/>
  </g>
  <path class="cls-1" d="M277.46,54.55h-1.67c-5.01,0-9.46,1.95-12.8,5.29s-5.01,7.51-5.01,12.52v65.4c0,18.09-4.45,31.73-13.36,41.19s-20.59,13.91-35.07,13.91-25.88-4.17-34.23-13.08c-8.35-8.91-12.52-21.43-12.52-38.13v-69.3c0-5.01-1.95-9.18-5.29-12.52-3.34-3.34-7.51-5.29-12.24-5.29h-1.67v89.33c0,21.43,5.57,37.85,17.25,49.26,11.69,11.41,26.72,16.98,45.08,16.98,7.79,0,15.86-.83,24.21-3.06,8.35-2.23,16.14-5.84,23.1-10.85,6.96-5.01,12.8-11.69,17.25-20.04,4.45-8.35,6.96-18.92,6.96-31.45V54.55Z"/>
  <path class="cls-1" d="M305.29,207.61h19.48V0h-19.48v207.61Z"/>
  <path class="cls-1" d="M430.52,52.32h-3.34c-14.47,0-26.99,3.34-37.85,9.46-11.41,6.96-20.04,16.14-25.88,27.55-6.4,11.97-9.46,25.88-9.46,41.74s3.06,29.5,9.46,41.47c6.12,11.69,14.75,20.87,25.88,27.55s23.66,10.02,37.57,10.02,26.44-3.62,37.57-10.3c10.58-7.24,18.37-15.86,23.1-25.88v33.95h19.76v-121.06h-.56c-5.57,0-10.02,1.67-13.64,5.57-3.9,3.62-5.57,8.07-5.57,13.64v25.32c0,12.24-2.5,22.82-7.51,32.28s-11.97,16.7-20.59,21.71c-8.63,5.01-18.09,7.51-28.66,7.51s-20.59-2.5-29.22-7.51c-8.35-4.73-15.31-11.97-20.32-21.71-5.01-8.91-7.24-20.04-7.24-32.84s2.23-23.93,7.24-33.12c5.01-8.91,11.69-16.14,20.32-21.15,8.63-4.73,18.37-7.24,28.94-7.24h76.81v-16.98h-76.81Z"/>
  <g>
    <path class="cls-1" d="M536.83,85.71h-.56v121.89h19.48v-84.88c0-.56.28-.83.28-1.39v-16.42c0-5.29-1.95-9.74-5.57-13.36-3.9-3.9-8.35-5.84-13.64-5.84Z"/>
    <path class="cls-1" d="M652.88,68.74c-11.69-11.13-26.44-16.98-44.81-16.98h-71.8v16.98h68.18c14.19,0,25.6,4.45,33.95,13.08,8.35,8.91,12.52,21.71,12.52,38.13v87.66h19.2v-89.89c0-21.71-5.84-37.85-17.25-48.98Z"/>
  </g>
</svg>